<?xml version="1.0" standalone="yes"?><!DOCTYPE svg PUBLIC "-//W3C//DTD SVG 1.1//EN" "http://www.w3.org/Graphics/SVG/1.1/DTD/svg11.dtd"[
<!ENTITY E4 'stroke:rgb(169,169,169);fill:none;stroke-linecap:butt;stroke-miterlimit:9;opacity:1;stroke-width:2;stroke-linejoin:miter;'><!ENTITY E26 'matrix(1.00 0.00 0.00 1.00 244.00 84.00 ) '><!ENTITY E9 'matrix(1.00 0.00 0.00 1.00 0.00 0.00 ) '><!ENTITY E6 'stroke:none;opacity:1;fill:rgb(155,91,179);'><!ENTITY E14 'stroke:none;fill-rule:evenodd;opacity:1;fill:rgb(255,255,255);'><!ENTITY E5 'matrix(1.00 0.00 0.00 1.00 484.00 4.00 ) '><!ENTITY E30 'stroke:none;opacity:1;fill:rgb(91,178,126);'><!ENTITY E24 'stroke:rgb(255,255,255);fill:none;stroke-linecap:butt;stroke-miterlimit:9;opacity:1;stroke-width:2;stroke-linejoin:miter;'><!ENTITY E1 'stroke:rgb(169,169,169);fill:none;stroke-linecap:butt;stroke-miterlimit:9;opacity:1;stroke-width:1;stroke-linejoin:miter;'><!ENTITY E50 'matrix(1.00 0.00 0.00 1.00 4.00 164.00 ) '><!ENTITY E23 'M 16.849 10.062 23.4027 10.062 M 16.6038 19.6084 23.3505 19.6084 M 12.3075 17.1615 7.5719 21.8971 M 7.577335 17.152 12.31704 21.8917 M 6.564136 10.0047 13.30904 10.0047 M 9.936636 6.6288 9.936636 13.3806 '><!ENTITY E7 'stroke:none;opacity:1;fill:rgb(255,255,255);'><!ENTITY E29 'matrix(1.00 0.00 0.00 1.00 164.00 4.00 ) '><!ENTITY E41 'matrix(1.00 0.00 0.00 1.00 164.00 164.00 ) '><!ENTITY E13 'M 12.246 6.0137 12.246 6.019559 C 12.05806 6.020259 11.89471 6.040434 11.76748 6.066434 10.86869 6.352735 10.89631 6.934374 9.87688 7.685534 8.863379 8.264335 8.35338 7.819914 7.61518 8.419914 6.87845 9.015514 7.39292 10.38251 7.08393 10.64841 6.77722 11.18001 5.82553 11.65471 5.65233 12.32611 5.50916 13.18481 6.04191 13.79701 6.02147 14.53311 6.08287 15.14641 5.41127 15.49489 5.5078 15.99211 5.79702 16.80421 6.35438 17.29221 6.6172 17.51751 6.663351 17.54951 6.700028 17.5985 6.714856 17.6015 6.790713 17.792 6.858586 17.98645 6.955086 18.16595 6.949606 18.13995 6.948576 18.11382 6.943367 18.08782 6.998228 18.30542 7.055077 18.52401 7.132816 18.73821 8.683116 22.09901 12.81412 24.68611 17.34182 24.11711 19.54102 23.84771 22.82442 22.33171 24.16602 18.73821 23.22044 19.58671 21.53152 20.32421 20.77732 20.38081 23.33002 19.10511 24.70712 16.93741 24.32031 13.97461 23.79154 15.23341 23.09341 16.20131 22.22071 16.86521 24.07451 13.97551 23.75691 12.48131 22.38478 10.83981 23.36615 13.53881 22.09719 16.53431 19.33208 18.66401 20.45238 18.78541 21.51657 18.51614 22.50198 17.71284 21.01318 19.37354 19.14968 20.20834 17.01368 20.43554 18.03358 21.30254 19.01818 21.69454 19.95898 21.52734 17.34458 22.24884 15.15478 21.45428 12.49018 18.80074 12.3507 19.51504 13.10514 20.62754 13.88278 21.33784 9.373278 19.38284 8.976177 13.29584 14.46872 11.79294 14.47202 11.79294 14.47518 11.79384 14.47848 11.79294 17.74978 13.70674 21.86528 13.58084 22.05078 12.34372 22.50885 10.86082 19.96508 7.805223 16.16208 7.007823 15.4618 6.871123 14.79228 6.817344 14.15428 6.835943 14.16706 6.835943 14.17858 6.836182 14.19139 6.826178 13.58399 6.177278 12.80989 6.011678 12.24609 6.013678 z M 17.17769 9.046878 C 17.72373 9.046878 18.22259 9.543848 18.22259 10.08988 18.22259 10.63598 17.72371 11.13288 17.17769 11.13288 16.63165 11.13288 16.13469 10.63601 16.13469 10.08988 16.13474 9.543879 16.63162 9.046778 17.17769 9.046878 z '><!ENTITY E16 'matrix(1.00 0.00 0.00 1.00 324.00 4.00 ) '><!ENTITY E21 'matrix(1.00 0.00 0.00 1.00 244.00 4.00 ) '><!ENTITY E32 'M 11.656 8.2 11.99975 8.7 16.31225 14.7937 11.65605 21.4187 11.28105 21.9187 14.74985 21.9187 14.8436 21.7624 17.9998 17.0124 18.46855 17.7 21.15605 21.7624 21.2498 21.9187 24.7498 21.9187 24.40605 21.4187 19.65605 14.6687 24.06225 8.699997 24.406 8.199997 20.9998 8.199997 20.90605 8.324997 18.68725 11.4187 C 18.46251 11.7285 18.22333 12.1062 17.9685 12.4812 17.77046 12.1547 17.58677 11.8424 17.31225 11.4187 L 15.28105 8.356197 15.1873 8.199997 11.6561 8.199997 z '><!ENTITY E19 'matrix(1.00 0.00 0.00 1.00 324.00 84.00 ) '><!ENTITY E35 'matrix(1.00 0.00 0.00 1.00 164.00 84.00 ) '><!ENTITY E3 'M 10.158 33.2 C 3.4054 31.7591 -1.861 26.4692 -3.271 19.71 '><!ENTITY E48 'matrix(1.00 0.00 0.00 1.00 84.00 164.00 ) '><!ENTITY E11 'matrix(1.00 0.00 0.00 1.00 404.00 4.00 ) '><!ENTITY E12 'stroke:none;opacity:1;fill:rgb(238,192,75);'><!ENTITY E31 'M 4.4028 13 4.93347 11.3266 C 6.15637 11.7667 7.04467 12.1477 7.598371 12.4698 7.45224 11.0476 7.37533 10.0696 7.36764 9.5352 L 9.040441 9.5352 C 9.017365 10.3131 8.92891 11.2873 8.775101 12.4581 9.567261 12.0495 10.4748 11.6723 11.4977 11.3266 L 12.02837 13 C 11.05162 13.3302 10.09407 13.5502 9.155771 13.6601 9.624911 14.0766 10.28637 14.819 11.14007 15.8877 L 9.755671 16.8894 C 9.30959 16.2687 8.782761 15.4241 8.175171 14.3554 7.606041 15.4633 7.106171 16.308 6.675471 16.8894 L 5.314171 15.8877 C 6.206311 14.7642 6.844671 14.0216 7.229171 13.6601 6.237041 13.4637 5.294871 13.2437 4.402771 13 z '><!ENTITY E44 'matrix(1.00 0.00 0.00 1.00 84.00 84.00 ) '><!ENTITY E28 'M 31.179 5.2 C 34.9985 11.0918 34.9814 18.682 31.13552 24.557 '>
]><svg width="532.5651" height="212.0711" id="SvgGdi_output" xmlns="http://www.w3.org/2000/svg"><rect id="background" height="100.00%" style="fill:rgb(255,255,255);" width="100.00%" y="0.00" x="0.00" /><g style="shape-rendering:auto;" id="root_group"><line y1="19.00" style="&E1;" id="97" x2="480.00" y2="19.00" x1="438.00" /><line y1="19.00" style="&E1;" id="98" x2="400.00" y2="19.00" x1="358.00" /><line y1="99.00" style="&E1;" id="99" x2="400.00" y2="19.00" x1="358.00" /><line y1="19.00" style="&E1;" id="100" x2="320.00" y2="19.00" x1="278.00" /><line y1="99.00" style="&E1;" id="101" x2="320.00" y2="99.00" x1="278.00" /><line y1="19.00" style="&E1;" id="102" x2="240.00" y2="19.00" x1="198.00" /><line y1="99.00" style="&E1;" id="103" x2="240.00" y2="99.00" x1="198.00" /><line y1="179.00" style="&E1;" id="104" x2="240.00" y2="99.00" x1="198.00" /><line y1="99.00" style="&E1;" id="105" x2="160.00" y2="99.00" x1="118.00" /><line y1="179.00" id="106" x2="160.00" y2="99.00" x1="118.00" style="stroke-dasharray:4.00 2.00 ;stroke:rgb(169,169,169);fill:none;stroke-linecap:butt;stroke-miterlimit:9;opacity:1;stroke-width:1;stroke-linejoin:miter;" /><line y1="179.00" style="&E1;" id="107" x2="80.00" y2="179.00" x1="38.00" /><path d="&E3;" style="&E4;" transform="&E5;" id="108" /><ellipse id="109" cy="15.00" cx="15.00" transform="&E5;" rx="15.00" ry="15.00" style="&E6;" /><ellipse id="110" cy="9.06" cx="15.01" transform="&E5;" rx="3.50" ry="3.50" style="&E7;" /><ellipse id="111" cy="18.49" cx="9.12" transform="&E5;" rx="3.50" ry="3.50" style="&E7;" /><ellipse id="112" cy="18.46" cx="20.88" transform="&E5;" rx="3.50" ry="3.50" style="&E7;" /><text id="113" transform="&E9;" x="484.00" y="39.00" style="stroke:none;clip-path:url(#115_text_clipper);font-family:Microsoft Sans Serif;fill:rgb(0,0,0);font-size:7.80pt;opacity:1;"><tspan dy="7.80pt" id="117">Workflow</tspan></text><text id="119" transform="&E9;" x="484.00" y="50.77" style="stroke:none;clip-path:url(#121_text_clipper);font-family:Microsoft Sans Serif;fill:rgb(0,0,0);font-size:7.80pt;opacity:1;"><tspan dy="7.80pt" id="123">Output</tspan></text><ellipse id="125" cy="15.00" cx="15.00" transform="&E11;" rx="15.00" ry="15.00" style="&E12;" /><path d="&E13;" style="&E14;" transform="&E11;" id="126" /><text id="127" transform="&E9;" x="404.00" y="39.00" style="stroke:none;clip-path:url(#129_text_clipper);font-family:Microsoft Sans Serif;fill:rgb(0,0,0);font-size:7.80pt;opacity:1;"><tspan dy="7.80pt" id="131">Sample</tspan></text><path d="&E3;" style="&E4;" transform="&E16;" id="133" /><ellipse id="134" cy="15.00" cx="15.00" transform="&E16;" rx="15.00" ry="15.00" style="&E6;" /><path style="&E14;" transform="&E16;" id="135" d="M 8.625 8.4 8.96875 8.9 13.28125 15.025 8.62505 21.6187 8.2813 22.1187 11.7501 22.1187 11.84385 21.9937 15.00005 17.2124 15.4688 17.9 18.125 21.9937 18.21875 22.1187 21.71875 22.1187 21.375 21.6187 16.625 14.8687 21.0312 8.9 21.4062 8.4 17.9688 8.4 17.87505 8.5562 15.68755 11.6187 15.6563 11.65 C 15.44045 11.9482 15.18092 12.3233 14.93755 12.6812 14.74069 12.357 14.55318 12.0383 14.2813 11.6187 L 12.2813 8.5562 12.18755 8.4 9.25005 8.4 z " /><text id="136" transform="&E9;" x="324.00" y="39.00" style="stroke:none;clip-path:url(#138_text_clipper);font-family:Microsoft Sans Serif;fill:rgb(0,0,0);font-size:7.80pt;opacity:1;"><tspan dy="7.80pt" id="140">Angle</tspan></text><ellipse id="142" cy="15.00" cx="15.00" transform="&E19;" rx="15.00" ry="15.00" style="&E12;" /><path d="&E13;" style="&E14;" transform="&E19;" id="143" /><text id="144" transform="&E9;" x="324.00" y="119.00" style="stroke:none;clip-path:url(#146_text_clipper);font-family:Microsoft Sans Serif;fill:rgb(0,0,0);font-size:7.80pt;opacity:1;"><tspan dy="7.80pt" id="148">Last</tspan></text><ellipse id="150" cy="15.00" cx="15.00" transform="&E21;" rx="15.00" ry="15.00" style="stroke:none;opacity:1;fill:rgb(68,154,223);" /><path d="&E23;" style="&E24;" transform="&E21;" id="151" /><ellipse id="152" cy="16.33" cx="19.93" transform="&E21;" rx="1.30" ry="1.30" style="&E7;" /><ellipse id="153" cy="22.83" cx="19.93" transform="&E21;" rx="1.30" ry="1.30" style="&E7;" /><text id="154" transform="&E9;" x="244.00" y="39.00" style="stroke:none;clip-path:url(#156_text_clipper);font-family:Microsoft Sans Serif;fill:rgb(0,0,0);font-size:7.80pt;opacity:1;"><tspan dy="7.80pt" id="158">Sample</tspan></text><ellipse id="160" cy="15.00" cx="15.00" transform="&E26;" rx="15.00" ry="15.00" style="&E12;" /><path d="&E13;" style="&E14;" transform="&E26;" id="161" /><text id="162" transform="&E9;" x="244.00" y="119.00" style="stroke:none;clip-path:url(#164_text_clipper);font-family:Microsoft Sans Serif;fill:rgb(0,0,0);font-size:7.80pt;opacity:1;"><tspan dy="7.80pt" id="166">TakeUntil</tspan></text><path d="&E28;" style="&E4;" transform="&E29;" id="168" /><ellipse id="169" cy="15.00" cx="15.00" transform="&E29;" rx="15.00" ry="15.00" style="&E30;" /><path d="&E31;" style="&E14;" transform="&E29;" id="170" /><path d="&E32;" style="&E14;" transform="&E29;" id="171" /><text id="172" transform="&E9;" x="164.00" y="39.00" style="stroke:none;clip-path:url(#174_text_clipper);font-family:Microsoft Sans Serif;fill:rgb(0,0,0);font-size:7.80pt;opacity:1;"><tspan dy="7.80pt" id="176">Angle</tspan></text><text id="178" transform="&E9;" x="164.00" y="50.77" style="stroke:none;clip-path:url(#180_text_clipper);font-family:Microsoft Sans Serif;fill:rgb(0,0,0);font-size:7.80pt;opacity:1;"><tspan dy="7.80pt" id="182">Distribution</tspan></text><ellipse id="184" cy="15.00" cx="15.00" transform="&E35;" rx="15.00" ry="15.00" style="&E12;" /><path style="&E4;" transform="&E35;" id="185" d="M 1.5363 7.8 C 1.99103 6.9385 2.52798 6.1205 3.1403 5.3587 3.7527 4.5967 4.4403 3.8909 5.1968 3.254 5.95315 2.617 6.7782 2.049 7.665299 1.5627 M 0.4537992 19.4997 C 0.1435492 18.4956 -0.05714077 17.4835 -0.1564507 16.4769 -0.2551987 15.4701 -0.2516447 14.4684 -0.1525816 13.4844 -0.05334165 12.5007 0.1414284 11.5347 0.4251484 10.5993 M 7.892348 28.3993 C 7.030958 27.9447 6.212848 27.4077 5.450948 26.7954 4.689008 26.1831 3.983248 25.4954 3.346348 24.739 2.709558 23.9826 2.141548 23.1575 1.655148 22.2704 M 19.49415 29.4993 C 18.48995 29.8096 17.47785 30.0103 16.47125 30.1096 15.46445 30.2084 14.46285 30.2049 13.47895 30.1018 12.49507 30.0028 11.52915 29.8079 10.59365 29.5242 M 28.46365 22.0993 C 28.00892 22.9606 27.472 23.7788 26.85965 24.5407 26.24738 25.3026 25.55945 26.0084 24.80315 26.6453 24.0468 27.2822 23.22175 27.8502 22.33465 28.3365 M 29.54565 10.4995 C 29.85594 11.5037 30.05659 12.5157 30.15594 13.5224 30.25481 14.5292 30.25114 15.531 30.15199 16.5147 30.05279 17.4986 29.85802 18.4646 29.5743 19.4 M 22.10769 1.499998 C 22.96908 1.954698 23.7872 2.491698 24.5491 3.103898 25.31104 3.716298 26.0168 4.404098 26.65369 5.160398 27.29052 5.916898 27.85859 6.741898 28.34499 7.629098 M 10.50499 0.3999977 C 11.50919 0.08969772 12.52109 -0.1109023 13.52779 -0.2103023 14.53469 -0.3090023 15.53619 -0.3055023 16.52009 -0.2103023 17.50401 -0.1111023 18.46999 0.08369771 19.40549 0.3673977 " /><path style="&E24;" transform="&E35;" id="186" d="M 19.269 20.099 C 19.269 22.4871 17.3331 24.4238 14.9451 24.4238 12.5561 24.4238 10.6203 22.487 10.6203 20.099 10.6203 17.7109 12.5562 15.7751 14.9451 15.7751 17.3332 15.7751 19.269 17.711 19.269 20.099 z " /><path style="&E14;" transform="&E35;" id="187" d="M 16.975 3.0248 C 16.73886 3.06546 16.51242 3.21251 16.34286 3.49717 15.6852 4.60047 14.77066 5.80307 14.35576 7.13567 13.92228 6.64929 13.54155 6.15081 13.6769 5.99947 14.54394 5.03396 13.22386 3.50617 12.3577 4.47067 11.36065 5.58137 11.58498 7.02467 12.50337 8.11237 13.35954 9.126869 14.12797 9.595369 14.22117 11.09017 13.71315 10.73458 13.23687 10.31038 12.67657 10.05927 12.01987 9.76308 10.16017 9.93013 9.818172 9.16561 9.266643 7.92891 7.657972 9.020451 8.210373 10.25711 8.769353 11.51011 9.959173 11.68241 11.05227 11.84021 12.21977 12.00775 13.06457 12.86311 14.09207 13.40411 14.02969 13.91396 13.95819 14.42471 13.91067 14.91691 13.77569 16.29881 15.64077 16.28731 15.77407 14.91691 15.90887 13.52981 16.18661 11.99041 16.06815 10.55711 18.20435 10.63938 21.03795 9.132412 21.83435 6.778212 22.27408 5.481912 20.47085 4.919911 20.03685 6.203712 19.77931 6.961502 18.99005 7.335611 18.40705 7.665512 17.62234 8.110412 16.88755 8.419831 16.02415 8.390021 16.08245 7.746341 16.39576 7.206521 16.71401 6.663321 17.12145 5.968041 17.53757 5.280221 17.95081 4.588721 18.46445 3.727551 17.68355 2.902821 16.97512 3.024821 z " /><ellipse id="188" cy="19.52" cx="16.06" transform="&E35;" rx="0.60" ry="0.60" style="&E7;" /><ellipse id="189" cy="19.52" cx="16.06" transform="&E35;" rx="0.60" ry="0.60" style="stroke:rgb(255,255,255);fill:none;stroke-linecap:butt;stroke-miterlimit:9;opacity:1;stroke-width:1.8061;stroke-linejoin:miter;" /><text id="190" transform="&E9;" x="164.00" y="119.00" style="stroke:none;clip-path:url(#192_text_clipper);font-family:Microsoft Sans Serif;fill:rgb(0,0,0);font-size:7.80pt;opacity:1;"><tspan dy="7.80pt" id="194">DrawGratings</tspan></text><path d="&E28;" style="&E4;" transform="&E41;" id="196" /><ellipse id="197" cy="15.00" cx="15.00" transform="&E41;" rx="15.00" ry="15.00" style="&E30;" /><path style="&E24;" transform="&E41;" id="198" d="M 15.011 14.916 15.15146 23.9388 M 23.14376 10.5618 15.01096 14.9158 6.97086 10.5618 M 6.924747 10.5618 15.15145 5.893101 23.14375 10.5618 23.14375 19.2433 15.15145 23.9386 6.924747 19.2433 z " /><ellipse id="199" cy="179.00" cx="164.00" rx="3.00" ry="3.00" style="&E4;" /><ellipse id="200" cy="179.00" cx="164.00" rx="3.00" ry="3.00" style="&E7;" /><text id="201" transform="&E9;" x="164.00" y="199.00" style="stroke:none;clip-path:url(#203_text_clipper);font-family:Microsoft Sans Serif;fill:rgb(0,0,0);font-size:7.80pt;opacity:1;"><tspan dy="7.80pt" id="205">Timer</tspan></text><path d="&E28;" style="&E4;" transform="&E44;" id="207" /><ellipse id="208" cy="15.00" cx="15.00" transform="&E44;" rx="15.00" ry="15.00" style="&E30;" /><path d="&E31;" style="&E14;" transform="&E44;" id="209" /><path d="&E32;" style="&E14;" transform="&E44;" id="210" /><text id="211" transform="&E9;" x="84.00" y="119.00" style="stroke:none;clip-path:url(#213_text_clipper);font-family:Microsoft Sans Serif;fill:rgb(0,0,0);font-size:7.80pt;opacity:1;"><tspan dy="7.80pt" id="215">Draw</tspan></text><path transform="&E48;" id="217" style="stroke:none;fill-rule:evenodd;opacity:1;fill:rgb(128,128,128);" d="M 15 0 C 15.40124 0 15.79355 0 16.1868 0.032679 L 17.4764 1.671279 C 18.19501 1.803959 18.878 1.976879 19.5521 2.217729 L 21.4286 1.483419 C 22.13968 1.823279 22.8289 2.226899 23.4726 2.670219 L 23.8493 4.621219 C 24.39461 5.086599 24.9133 5.605469 25.3788 6.150719 L 27.3298 6.494379 C 27.77262 7.137679 28.17707 7.860779 28.5166 8.57128 L 27.74584 10.44788 C 27.98674 11.12204 28.19601 11.80508 28.32852 12.52348 L 29.96712 13.81308 C 29.99807 14.2062 30.00009 14.59888 30.00009 14.99988 30.00009 15.39224 29.99671 15.76908 29.96712 16.15388 L 28.32852 17.43998 C 28.19832 18.14633 28.01721 18.85248 27.78226 19.51558 L 28.51657 21.42868 C 28.17593 22.14291 27.77461 22.82648 27.32977 23.47268 L 25.37877 23.81302 C 24.91321 24.35829 24.39455 24.87682 23.84927 25.34242 L 23.47257 27.32992 C 22.82847 27.77371 22.14007 28.17669 21.42857 28.51662 L 19.51567 27.74597 C 18.85121 27.98162 18.18377 28.19809 17.47627 28.32876 L 16.18677 29.93436 C 15.79348 29.965 15.40117 29.99982 14.99997 29.99982 14.59873 29.99982 14.17345 29.96607 13.78017 29.93436 L 12.55997 28.32876 C 11.86172 28.19999 11.14067 27.977 10.48427 27.74597 L 8.571372 28.51662 C 7.856242 28.17558 7.174472 27.7755 6.527372 27.32992 L 6.150662 25.30622 C 5.617232 24.84794 5.114162 24.34789 4.657562 23.81302 L 2.670162 23.47268 C 2.225282 22.82649 1.823962 22.14288 1.483362 21.42868 L 2.254122 19.51558 C 2.022912 18.85918 1.800192 18.13838 1.671442 17.43998 L 0.06584227 16.18678 C 0.03489427 15.79366 -9.272993E-05 15.4013 -9.272993E-05 14.99998 -9.272993E-05 14.59894 0.03489527 14.20625 0.06584227 13.81318 L 1.671442 12.52358 C 1.801892 11.81616 2.018542 11.14888 2.254122 10.48438 L 1.483362 8.571277 C 1.822922 7.860797 2.227392 7.137677 2.670162 6.494377 L 4.657562 6.150717 C 5.114192 5.615747 5.617242 5.115817 6.150662 4.657517 L 6.527372 2.670117 C 7.174102 2.224717 7.856672 1.824207 8.571372 1.483317 L 10.48427 2.217627 C 11.14757 1.982687 11.85387 1.801607 12.55997 1.671177 L 13.84607 0.0325768 C 14.23082 0.003004799 14.60761 -0.0001021996 14.99987 -0.0001021996 z " /><path d="&E23;" style="&E24;" transform="&E48;" id="218" /><ellipse id="219" cy="16.33" cx="19.93" transform="&E48;" rx="1.30" ry="1.30" style="&E7;" /><ellipse id="220" cy="22.83" cx="19.93" transform="&E48;" rx="1.30" ry="1.30" style="&E7;" /><text id="221" transform="&E9;" x="84.00" y="199.00" style="stroke:none;clip-path:url(#223_text_clipper);font-family:Microsoft Sans Serif;fill:rgb(0,0,0);font-size:7.80pt;opacity:1;"><tspan dy="7.80pt" id="225">Angle</tspan></text><path d="&E28;" style="&E4;" transform="&E50;" id="227" /><ellipse id="228" cy="15.00" cx="15.00" transform="&E50;" rx="15.00" ry="15.00" style="&E30;" /><path d="&E31;" style="&E14;" transform="&E50;" id="229" /><path d="&E32;" style="&E14;" transform="&E50;" id="230" /><text id="231" transform="&E9;" x="4.00" y="199.00" style="stroke:none;clip-path:url(#233_text_clipper);font-family:Microsoft Sans Serif;fill:rgb(0,0,0);font-size:7.80pt;opacity:1;"><tspan dy="7.80pt" id="235">Angle</tspan></text></g><defs id="clips_hatches_and_gradients"><clipPath id="115_text_clipper"><rect x="484.00" y="39.00" width="47.57" height="26.14" id="116" /></clipPath><clipPath id="121_text_clipper"><rect x="484.00" y="50.77" width="47.57" height="26.14" id="122" /></clipPath><clipPath id="129_text_clipper"><rect x="404.00" y="39.00" width="39.85" height="13.07" id="130" /></clipPath><clipPath id="138_text_clipper"><rect x="324.00" y="39.00" width="30.92" height="13.07" id="139" /></clipPath><clipPath id="146_text_clipper"><rect x="324.00" y="119.00" width="23.71" height="13.07" id="147" /></clipPath><clipPath id="156_text_clipper"><rect x="244.00" y="39.00" width="39.85" height="13.07" id="157" /></clipPath><clipPath id="164_text_clipper"><rect x="244.00" y="119.00" width="48.83" height="13.07" id="165" /></clipPath><clipPath id="174_text_clipper"><rect x="164.00" y="39.00" width="57.23" height="26.14" id="175" /></clipPath><clipPath id="180_text_clipper"><rect x="164.00" y="50.77" width="57.23" height="26.14" id="181" /></clipPath><clipPath id="192_text_clipper"><rect x="164.00" y="119.00" width="69.00" height="13.07" id="193" /></clipPath><clipPath id="203_text_clipper"><rect x="164.00" y="199.00" width="30.90" height="13.07" id="204" /></clipPath><clipPath id="213_text_clipper"><rect x="84.00" y="119.00" width="28.46" height="13.07" id="214" /></clipPath><clipPath id="223_text_clipper"><rect x="84.00" y="199.00" width="30.92" height="13.07" id="224" /></clipPath><clipPath id="233_text_clipper"><rect x="4.00" y="199.00" width="30.92" height="13.07" id="234" /></clipPath></defs></svg>