<?xml version="1.0" standalone="yes"?><!DOCTYPE svg PUBLIC "-//W3C//DTD SVG 1.1//EN" "http://www.w3.org/Graphics/SVG/1.1/DTD/svg11.dtd"[
<!ENTITY E2 'opacity:1;stroke:none;fill:rgb(238,192,75);'><!ENTITY E5 'stroke-miterlimit:9;stroke-linecap:butt;opacity:1;stroke-width:2;fill:none;stroke-linejoin:miter;stroke:rgb(255,255,255);'><!ENTITY E20 'matrix(1.00 0.00 0.00 1.00 4.00 4.00 ) '><!ENTITY E14 'M 11.061 10.763 C 11.061 9.349799 12.2452 7.7226 13.7798 7.4008 15.4144 6.98898 17.2874 7.88198 17.9084 9.4683 18.47393 10.8026 17.97233 12.4332 16.8453 13.3125 16.16579 13.95364 15.1393 14.28144 14.7641 15.2029 14.48171 16.1142 14.56073 17.1532 14.56319 18.0326 '><!ENTITY E10 'matrix(1.00 0.00 0.00 1.00 164.00 84.00 ) '><!ENTITY E1 'stroke-miterlimit:9;stroke-linecap:butt;opacity:1;stroke-width:1;fill:none;stroke-linejoin:miter;stroke:rgb(169,169,169);'><!ENTITY E13 'stroke-miterlimit:9;stroke-linecap:butt;opacity:1;stroke-width:2.5;fill:none;stroke-linejoin:miter;stroke:rgb(255,255,255);'><!ENTITY E12 'matrix(1.00 0.00 0.00 1.00 84.00 4.00 ) '><!ENTITY E7 'opacity:1;stroke:none;fill:rgb(255,255,255);'><!ENTITY E9 'matrix(1.00 0.00 0.00 1.00 0.00 0.00 ) '><!ENTITY E17 'matrix(1.00 0.00 0.00 1.00 84.00 84.00 ) '><!ENTITY E6 'M 14.876 5.6408 14.876 24.0228 '><!ENTITY E3 'matrix(1.00 0.00 0.00 1.00 164.00 4.00 ) '><!ENTITY E4 'stroke-miterlimit:9;stroke-linecap:butt;opacity:1;stroke-width:2;fill:none;stroke-linejoin:miter;stroke:rgb(169,169,169);'>
]><svg width="227.2492" height="146.6504" id="SvgGdi_output" xmlns="http://www.w3.org/2000/svg"><rect width="100.00%" x="0.00" y="0.00" height="100.00%" id="background" style="fill:rgb(255,255,255);" /><g id="root_group" style="shape-rendering:auto;"><line x1="118.00" x2="160.00" y2="19.00" id="98" style="&E1;" y1="19.00" /><line x1="118.00" x2="160.00" y2="99.00" id="99" style="&E1;" y1="99.00" /><line x1="38.00" x2="80.00" y2="19.00" id="100" style="&E1;" y1="19.00" /><line x1="38.00" x2="80.00" y2="99.00" id="101" style="&E1;" y1="19.00" /><ellipse ry="15.00" style="&E2;" id="102" cx="15.00" rx="15.00" cy="15.00" transform="&E3;" /><ellipse ry="15.00" style="&E4;" id="103" cx="15.00" rx="15.00" cy="15.00" transform="&E3;" /><path style="&E5;" id="104" transform="&E3;" d="&E6;" /><ellipse ry="3.40" style="&E7;" id="105" cx="8.47" rx="3.40" cy="10.20" transform="&E3;" /><ellipse ry="3.40" style="&E7;" id="106" cx="21.33" rx="3.40" cy="10.20" transform="&E3;" /><ellipse ry="3.40" style="&E7;" id="107" cx="21.33" rx="3.40" cy="19.20" transform="&E3;" /><text x="164.00" y="39.00" id="108" transform="&E9;" style="fill:rgb(0,0,0);clip-path:url(#110_text_clipper);font-size:8.25pt;opacity:1;font-family:Microsoft Sans Serif;stroke:none;"><tspan id="112" dy="8.25pt">SequenceA</tspan></text><ellipse ry="15.00" style="&E2;" id="114" cx="15.00" rx="15.00" cy="15.00" transform="&E10;" /><ellipse ry="15.00" style="&E4;" id="115" cx="15.00" rx="15.00" cy="15.00" transform="&E10;" /><path style="&E5;" id="116" transform="&E10;" d="&E6;" /><ellipse ry="3.40" style="&E7;" id="117" cx="8.47" rx="3.40" cy="10.20" transform="&E10;" /><ellipse ry="3.40" style="&E7;" id="118" cx="21.33" rx="3.40" cy="10.20" transform="&E10;" /><ellipse ry="3.40" style="&E7;" id="119" cx="21.33" rx="3.40" cy="19.20" transform="&E10;" /><text x="164.00" y="119.00" id="120" transform="&E9;" style="fill:rgb(0,0,0);clip-path:url(#122_text_clipper);font-size:8.25pt;opacity:1;font-family:Microsoft Sans Serif;stroke:none;"><tspan id="124" dy="8.25pt">SequenceB</tspan></text><ellipse ry="15.00" style="&E2;" id="126" cx="15.00" rx="15.00" cy="15.00" transform="&E12;" /><ellipse ry="15.00" style="&E4;" id="127" cx="15.00" rx="15.00" cy="15.00" transform="&E12;" /><path style="&E13;" id="128" transform="&E12;" d="&E14;" /><ellipse ry="1.81" style="&E7;" id="129" cx="14.68" rx="1.81" cy="21.60" transform="&E12;" /><text x="84.00" y="39.00" id="130" transform="&E9;" style="fill:rgb(0,0,0);clip-path:url(#132_text_clipper);font-size:8.25pt;opacity:1;font-family:Microsoft Sans Serif;stroke:none;"><tspan id="134" dy="8.25pt">GreaterThan</tspan></text><text x="84.00" y="51.45" id="136" transform="&E9;" style="fill:rgb(0,0,0);clip-path:url(#138_text_clipper);font-size:8.25pt;opacity:1;font-family:Microsoft Sans Serif;stroke:none;"><tspan id="140" dy="8.25pt">Zero</tspan></text><ellipse ry="15.00" style="&E2;" id="142" cx="15.00" rx="15.00" cy="15.00" transform="&E17;" /><ellipse ry="15.00" style="&E4;" id="143" cx="15.00" rx="15.00" cy="15.00" transform="&E17;" /><path style="&E13;" id="144" transform="&E17;" d="&E14;" /><ellipse ry="1.81" style="&E7;" id="145" cx="14.68" rx="1.81" cy="21.60" transform="&E17;" /><text x="84.00" y="119.00" id="146" transform="&E9;" style="fill:rgb(0,0,0);clip-path:url(#148_text_clipper);font-size:8.25pt;opacity:1;font-family:Microsoft Sans Serif;stroke:none;"><tspan id="150" dy="8.25pt">LessThan</tspan></text><text x="84.00" y="131.45" id="152" transform="&E9;" style="fill:rgb(0,0,0);clip-path:url(#154_text_clipper);font-size:8.25pt;opacity:1;font-family:Microsoft Sans Serif;stroke:none;"><tspan id="156" dy="8.25pt">Zero</tspan></text><ellipse ry="15.00" style="&E2;" id="158" cx="15.00" rx="15.00" cy="15.00" transform="&E20;" /><path style="&E4;" id="159" transform="&E20;" d="M 1.5363 7.8 C 1.99103 6.9385 2.52798 6.1205 3.1403 5.3587 3.7527 4.5967 4.4403 3.8909 5.1968 3.254 5.95315 2.617 6.7782 2.049 7.665299 1.5627 M 0.4537992 19.4997 C 0.1435492 18.4956 -0.05714077 17.4835 -0.1564507 16.4769 -0.2551987 15.4701 -0.2516447 14.4684 -0.1525816 13.4844 -0.05334165 12.5007 0.1414284 11.5347 0.4251484 10.5993 M 7.892348 28.3993 C 7.030958 27.9447 6.212848 27.4077 5.450948 26.7954 4.689008 26.1831 3.983248 25.4954 3.346348 24.739 2.709558 23.9826 2.141548 23.1575 1.655148 22.2704 M 19.49415 29.4993 C 18.48995 29.8096 17.47785 30.0103 16.47125 30.1096 15.46445 30.2084 14.46285 30.2049 13.47895 30.1018 12.49507 30.0028 11.52915 29.8079 10.59365 29.5242 M 28.46365 22.0993 C 28.00892 22.9606 27.472 23.7788 26.85965 24.5407 26.24738 25.3026 25.55945 26.0084 24.80315 26.6453 24.0468 27.2822 23.22175 27.8502 22.33465 28.3365 M 29.54565 10.4995 C 29.85594 11.5037 30.05659 12.5157 30.15594 13.5224 30.25481 14.5292 30.25114 15.531 30.15199 16.5147 30.05279 17.4986 29.85802 18.4646 29.5743 19.4 M 22.10769 1.499998 C 22.96908 1.954698 23.7872 2.491698 24.5491 3.103898 25.31104 3.716298 26.0168 4.404098 26.65369 5.160398 27.29052 5.916898 27.85859 6.741898 28.34499 7.629098 M 10.50499 0.3999977 C 11.50919 0.08969772 12.52109 -0.1109023 13.52779 -0.2103023 14.53469 -0.3090023 15.53619 -0.3055023 16.52009 -0.2103023 17.50401 -0.1111023 18.46999 0.08369771 19.40549 0.3673977 " /><ellipse ry="3.50" style="&E7;" id="160" cx="15.01" rx="3.50" cy="9.06" transform="&E20;" /><ellipse ry="3.50" style="&E7;" id="161" cx="9.12" rx="3.50" cy="18.49" transform="&E20;" /><ellipse ry="3.50" style="&E7;" id="162" cx="20.88" rx="3.50" cy="18.46" transform="&E20;" /><text x="4.00" y="39.00" id="163" transform="&E9;" style="fill:rgb(0,0,0);clip-path:url(#165_text_clipper);font-size:8.25pt;opacity:1;font-family:Microsoft Sans Serif;stroke:none;"><tspan id="167" dy="8.25pt">Normal</tspan></text><text x="4.00" y="51.45" id="169" transform="&E9;" style="fill:rgb(0,0,0);clip-path:url(#171_text_clipper);font-size:8.25pt;opacity:1;font-family:Microsoft Sans Serif;stroke:none;"><tspan id="173" dy="8.25pt">Random</tspan></text></g><defs id="clips_hatches_and_gradients"><clipPath id="110_text_clipper"><rect id="111" width="62.25" height="13.83" x="164.00" y="39.00" /></clipPath><clipPath id="122_text_clipper"><rect id="123" width="62.25" height="13.83" x="164.00" y="119.00" /></clipPath><clipPath id="132_text_clipper"><rect id="133" width="67.89" height="27.65" x="84.00" y="39.00" /></clipPath><clipPath id="138_text_clipper"><rect id="139" width="67.89" height="27.65" x="84.00" y="51.45" /></clipPath><clipPath id="148_text_clipper"><rect id="149" width="53.42" height="27.65" x="84.00" y="119.00" /></clipPath><clipPath id="154_text_clipper"><rect id="155" width="53.42" height="27.65" x="84.00" y="131.45" /></clipPath><clipPath id="165_text_clipper"><rect id="166" width="46.49" height="27.65" x="4.00" y="39.00" /></clipPath><clipPath id="171_text_clipper"><rect id="172" width="46.49" height="27.65" x="4.00" y="51.45" /></clipPath></defs></svg>